<svg width="25" height="25" viewBox="0 0 25 25" fill="none" xmlns="http://www.w3.org/2000/svg">
<g clip-path="url(#clip0_1077_147)">
<path d="M21.8691 10.2067C21.8691 17.2067 12.8691 23.2067 12.8691 23.2067C12.8691 23.2067 3.86914 17.2067 3.86914 10.2067C3.86914 7.81972 4.81735 5.53053 6.50518 3.8427C8.19301 2.15488 10.4822 1.20667 12.8691 1.20667C15.2561 1.20667 17.5453 2.15488 19.2331 3.8427C20.9209 5.53053 21.8691 7.81972 21.8691 10.2067Z" stroke="black" stroke-width="2" stroke-linecap="round" stroke-linejoin="round"/>
<path d="M12.8691 13.2067C14.526 13.2067 15.8691 11.8635 15.8691 10.2067C15.8691 8.54981 14.526 7.20667 12.8691 7.20667C11.2123 7.20667 9.86914 8.54981 9.86914 10.2067C9.86914 11.8635 11.2123 13.2067 12.8691 13.2067Z" stroke="black" stroke-width="2" stroke-linecap="round" stroke-linejoin="round"/>
</g>
<defs>
<clipPath id="clip0_1077_147">
<rect width="24" height="24" fill="white" transform="translate(0.869141 0.206665)"/>
</clipPath>
</defs>
</svg>
